# xmcd
# Track frame offsets:
# 150
# 16065
# 35891
# 51168
# 65990
# 80532
# 91444
# 109289
# 125588
# 145912
# 158582
# 174728
#
# Disc length: 2588 seconds
# Revision: 0
# Processed by: cddbd v1.5PL3 Copyright (c) Steve Scherf et al.
# Submitted via: VisiTrax 2.9.9.202 - For more info visit www.synapsa.com
#
DISCID=aa0a1a0c
DTITLE=Peter Viskinde - Turn To You
DYEAR=1900
DGENRE=
TTITLE0=Out on the run
TTITLE1=Heartache
TTITLE2=The Only one for me
TTITLE3=Turn to you
TTITLE4=Rain,Rain
TTITLE5=You´r Rockin`
TTITLE6=Till the end
TTITLE7=To made me Stay
TTITLE8=You` re an angel
TTITLE9=How to carry on
TTITLE10=Hold on
TTITLE11=The last cut
EXTD=
EXTT0=
EXTT1=
EXTT2=
EXTT3=
EXTT4=
EXTT5=
EXTT6=
EXTT7=
EXTT8=
EXTT9=
EXTT10=
EXTT11=
PLAYORDER=
